<?xml version="1.0" encoding="UTF-8"?>
<svg id="Layer_1" xmlns="http://www.w3.org/2000/svg" xmlns:xlink="http://www.w3.org/1999/xlink" version="1.1" viewBox="0 0 432 252">
  <!-- Generator: Adobe Illustrator 30.2.1, SVG Export Plug-In . SVG Version: 2.1.1 Build 1)  -->
  <defs>
    <style>
      .st0, .st1, .st2 {
        fill: none;
      }

      .st3 {
        fill: #c77cff;
        stroke: #c77cff;
      }

      .st3, .st4, .st1, .st2, .st5, .st6, .st7 {
        stroke-linejoin: round;
      }

      .st3, .st4, .st2, .st5, .st6, .st7 {
        stroke-linecap: round;
      }

      .st3, .st5, .st6, .st7 {
        stroke-width: .71px;
      }

      .st8 {
        font-size: 10px;
      }

      .st8, .st9, .st10, .st11 {
        font-family: ArialMT, Arial;
        isolation: isolate;
      }

      .st4 {
        stroke: #fff;
      }

      .st4, .st1 {
        stroke-width: 1.07px;
      }

      .st4, .st12 {
        fill: #fff;
      }

      .st9 {
        font-size: 8.54px;
      }

      .st10 {
        font-size: 12px;
      }

      .st1 {
        stroke: #333;
      }

      .st13 {
        clip-path: url(#clippath-1);
      }

      .st14 {
        clip-path: url(#clippath-2);
      }

      .st2 {
        stroke: #000;
        stroke-width: 1.28px;
      }

      .st5 {
        fill: #00bfc4;
        stroke: #00bfc4;
      }

      .st11 {
        font-size: 8.8px;
      }

      .st6 {
        fill: #7cae00;
        stroke: #7cae00;
      }

      .st7 {
        fill: #f8766d;
        stroke: #f8766d;
      }

      .st15 {
        clip-path: url(#clippath);
      }
    </style>
    <clipPath id="clippath">
      <rect class="st0" y="0" width="432" height="252"/>
    </clipPath>
    <clipPath id="clippath-1">
      <rect class="st0" x="41.86" y="22.08" width="274.95" height="197.51"/>
    </clipPath>
    <clipPath id="clippath-2">
      <rect class="st0" y="0" width="432" height="252"/>
    </clipPath>
  </defs>
  <rect class="st12" y="0" width="432" height="252"/>
  <g class="st15">
    <rect class="st4" y="0" width="432" height="252"/>
  </g>
  <g class="st13">
    <g>
      <rect class="st12" x="41.86" y="22.08" width="274.95" height="197.51"/>
      <circle class="st7" cx="156.52" cy="153.58" r="2.49"/>
      <circle class="st7" cx="164.69" cy="108.25" r="2.49"/>
      <circle class="st7" cx="195.74" cy="137.89" r="2.49"/>
      <circle class="st7" cx="181.52" cy="137.1" r="2.49"/>
      <circle class="st7" cx="200.19" cy="151.19" r="2.49"/>
      <circle class="st6" cx="158.33" cy="166.3" r="2.49"/>
      <circle class="st6" cx="192.02" cy="138.78" r="2.49"/>
      <circle class="st6" cx="164.82" cy="169.57" r="2.49"/>
      <circle class="st6" cx="171.69" cy="141.98" r="2.49"/>
      <circle class="st6" cx="149.13" cy="139.05" r="2.49"/>
      <circle class="st6" cx="211.5" cy="150.6" r="2.49"/>
      <circle class="st6" cx="193.58" cy="119.91" r="2.49"/>
      <circle class="st6" cx="173.19" cy="129.54" r="2.49"/>
      <circle class="st6" cx="167.42" cy="140.94" r="2.49"/>
      <circle class="st6" cx="195.32" cy="152.42" r="2.49"/>
      <circle class="st6" cx="207.83" cy="148.51" r="2.49"/>
      <circle class="st6" cx="202.27" cy="145.83" r="2.49"/>
      <circle class="st6" cx="196.9" cy="146.35" r="2.49"/>
      <circle class="st6" cx="231.09" cy="97.23" r="2.49"/>
      <circle class="st6" cx="206.85" cy="130.41" r="2.49"/>
      <circle class="st7" cx="116.81" cy="210.6" r="2.49"/>
      <circle class="st7" cx="185.7" cy="155.27" r="2.49"/>
      <circle class="st7" cx="207" cy="150.86" r="2.49"/>
      <circle class="st7" cx="211.94" cy="145.27" r="2.49"/>
      <circle class="st7" cx="163.29" cy="133.73" r="2.49"/>
      <circle class="st7" cx="219.05" cy="99.15" r="2.49"/>
      <circle class="st7" cx="188.32" cy="98.92" r="2.49"/>
      <circle class="st7" cx="156.06" cy="110.27" r="2.49"/>
      <circle class="st7" cx="174.52" cy="153.08" r="2.49"/>
      <circle class="st7" cx="183.09" cy="134.13" r="2.49"/>
      <circle class="st5" cx="157.24" cy="118.03" r="2.49"/>
      <circle class="st5" cx="151.11" cy="122.42" r="2.49"/>
      <circle class="st5" cx="168.2" cy="105.84" r="2.49"/>
      <circle class="st5" cx="93.56" cy="105.09" r="2.49"/>
      <circle class="st5" cx="163.76" cy="112.44" r="2.49"/>
      <circle class="st3" cx="137.29" cy="101.84" r="2.49"/>
      <circle class="st3" cx="122.26" cy="104.96" r="2.49"/>
      <circle class="st3" cx="160.55" cy="73.28" r="2.49"/>
      <circle class="st3" cx="132.11" cy="97.59" r="2.49"/>
      <circle class="st3" cx="226.87" cy="31.05" r="2.49"/>
      <circle class="st3" cx="122.44" cy="123.47" r="2.49"/>
      <circle class="st3" cx="180.9" cy="71.55" r="2.49"/>
      <circle class="st3" cx="166.35" cy="97.97" r="2.49"/>
      <circle class="st3" cx="54.36" cy="151.11" r="2.49"/>
      <circle class="st3" cx="114.95" cy="105.77" r="2.49"/>
      <circle class="st3" cx="212.43" cy="50.76" r="2.49"/>
      <circle class="st3" cx="159.13" cy="90.82" r="2.49"/>
      <circle class="st3" cx="125.4" cy="96.31" r="2.49"/>
      <circle class="st3" cx="139.32" cy="106.04" r="2.49"/>
      <circle class="st3" cx="304.31" cy="142.7" r="2.49"/>
      <circle class="st5" cx="122.52" cy="136.07" r="2.49"/>
      <circle class="st5" cx="157.03" cy="122.68" r="2.49"/>
      <circle class="st5" cx="140.15" cy="133.88" r="2.49"/>
      <circle class="st5" cx="147.72" cy="135.48" r="2.49"/>
      <circle class="st5" cx="127.52" cy="137.47" r="2.49"/>
      <circle class="st5" cx="90.46" cy="88.82" r="2.49"/>
      <circle class="st5" cx="143.23" cy="76.13" r="2.49"/>
      <circle class="st5" cx="185.8" cy="67.68" r="2.49"/>
      <circle class="st5" cx="146.21" cy="107.48" r="2.49"/>
      <circle class="st5" cx="143.38" cy="98.22" r="2.49"/>
      <text class="st9" transform="translate(157.47 152.35)"><tspan x="0" y="0">0</tspan></text>
      <text class="st9" transform="translate(165.29 106.61)"><tspan x="0" y="0">0</tspan></text>
      <text class="st9" transform="translate(196.69 136.67)"><tspan x="0" y="0">0</tspan></text>
      <text class="st9" transform="translate(180.74 135.71)"><tspan x="0" y="0">0</tspan></text>
      <text class="st9" transform="translate(199.22 152.21)"><tspan x="0" y="0">0</tspan></text>
      <text class="st9" transform="translate(160.23 165.08)"><tspan x="0" y="0">04</tspan></text>
      <text class="st9" transform="translate(187.72 139.38)"><tspan x="0" y="0">04</tspan></text>
      <text class="st9" transform="translate(168.03 170.13)"><tspan x="0" y="0">04</tspan></text>
      <text class="st9" transform="translate(172.78 144.26)"><tspan x="0" y="0">04</tspan></text>
      <text class="st9" transform="translate(151.65 140.73)"><tspan x="0" y="0">04</tspan></text>
      <text class="st9" transform="translate(213.04 155.96)"><tspan x="0" y="0">08</tspan></text>
      <text class="st9" transform="translate(195.48 118.68)"><tspan x="0" y="0">08</tspan></text>
      <text class="st9" transform="translate(175.09 128.32)"><tspan x="0" y="0">08</tspan></text>
      <text class="st9" transform="translate(164.93 139.21)"><tspan x="0" y="0">08</tspan></text>
      <text class="st9" transform="translate(187.69 152.21)"><tspan x="0" y="0">08</tspan></text>
      <text class="st9" transform="translate(207.19 149.31)"><tspan x="0" y="0">12</tspan></text>
      <text class="st9" transform="translate(201.44 144.26)"><tspan x="0" y="0">12</tspan></text>
      <text class="st9" transform="translate(192.83 145.24)"><tspan x="0" y="0">12</tspan></text>
      <text class="st9" transform="translate(232.99 96)"><tspan x="0" y="0">12</tspan></text>
      <text class="st9" transform="translate(208.75 129.19)"><tspan x="0" y="0">12</tspan></text>
      <text class="st9" transform="translate(118.71 209.38)"><tspan x="0" y="0">16</tspan></text>
      <text class="st9" transform="translate(183.33 159.29)"><tspan x="0" y="0">16</tspan></text>
      <text class="st9" transform="translate(203.08 157.85)"><tspan x="0" y="0">16</tspan></text>
      <text class="st9" transform="translate(211.25 142.66)"><tspan x="0" y="0">16</tspan></text>
      <text class="st9" transform="translate(165.19 132.51)"><tspan x="0" y="0">16</tspan></text>
      <text class="st9" transform="translate(220.95 97.93)"><tspan x="0" y="0">20</tspan></text>
      <text class="st9" transform="translate(190.22 97.7)"><tspan x="0" y="0">20</tspan></text>
      <text class="st9" transform="translate(156.52 109.31)"><tspan x="0" y="0">20</tspan></text>
      <text class="st9" transform="translate(176.42 151.86)"><tspan x="0" y="0">20</tspan></text>
      <text class="st9" transform="translate(184.99 132.91)"><tspan x="0" y="0">20</tspan></text>
      <text class="st9" transform="translate(158.19 116.81)"><tspan x="0" y="0">0</tspan></text>
      <text class="st9" transform="translate(152.06 121.2)"><tspan x="0" y="0">0</tspan></text>
      <text class="st9" transform="translate(169.55 104.92)"><tspan x="0" y="0">0</tspan></text>
      <text class="st9" transform="translate(94.51 103.87)"><tspan x="0" y="0">0</tspan></text>
      <text class="st9" transform="translate(164.8 114.72)"><tspan x="0" y="0">0</tspan></text>
      <text class="st9" transform="translate(137.06 103.16)"><tspan x="0" y="0">04</tspan></text>
      <text class="st9" transform="translate(124.87 104.82)"><tspan x="0" y="0">04</tspan></text>
      <text class="st9" transform="translate(162.45 72.06)"><tspan x="0" y="0">04</tspan></text>
      <text class="st9" transform="translate(133.84 96.74)"><tspan x="0" y="0">04</tspan></text>
      <text class="st9" transform="translate(228.77 29.83)"><tspan x="0" y="0">04</tspan></text>
      <text class="st9" transform="translate(124.34 122.25)"><tspan x="0" y="0">08</tspan></text>
      <text class="st9" transform="translate(182.95 73.07)"><tspan x="0" y="0">08</tspan></text>
      <text class="st9" transform="translate(168.25 96.74)"><tspan x="0" y="0">08</tspan></text>
      <text class="st9" transform="translate(56.26 149.88)"><tspan x="0" y="0">08</tspan></text>
      <text class="st9" transform="translate(114.19 103.87)"><tspan x="0" y="0">08</tspan></text>
      <text class="st9" transform="translate(214.33 49.53)"><tspan x="0" y="0">12</tspan></text>
      <text class="st9" transform="translate(161.03 89.6)"><tspan x="0" y="0">12</tspan></text>
      <text class="st9" transform="translate(124.42 93.59)"><tspan x="0" y="0">12</tspan></text>
      <text class="st9" transform="translate(135.03 110.53)"><tspan x="0" y="0">12</tspan></text>
      <text class="st9" transform="translate(306.21 141.48)"><tspan x="0" y="0">12</tspan></text>
      <text class="st9" transform="translate(122.77 133.37)"><tspan x="0" y="0">16</tspan></text>
      <text class="st9" transform="translate(158.55 123.27)"><tspan x="0" y="0">16</tspan></text>
      <text class="st9" transform="translate(142.05 132.66)"><tspan x="0" y="0">16</tspan></text>
      <text class="st9" transform="translate(149.62 134.26)"><tspan x="0" y="0">16</tspan></text>
      <text class="st9" transform="translate(129.17 139.84)"><tspan x="0" y="0">16</tspan></text>
      <text class="st9" transform="translate(92.36 87.6)"><tspan x="0" y="0">20</tspan></text>
      <text class="st9" transform="translate(145.13 74.91)"><tspan x="0" y="0">20</tspan></text>
      <text class="st9" transform="translate(187.7 66.46)"><tspan x="0" y="0">20</tspan></text>
      <text class="st9" transform="translate(146.41 108.12)"><tspan x="0" y="0">20</tspan></text>
      <text class="st9" transform="translate(145.28 97)"><tspan x="0" y="0">20</tspan></text>
      <rect class="st2" x="41.86" y="22.08" width="274.95" height="197.51"/>
    </g>
  </g>
  <g class="st14">
    <g>
      <text class="st11" transform="translate(19.32 221.51)"><tspan x="0" y="0">-150</tspan></text>
      <text class="st11" transform="translate(19.32 189.33)"><tspan x="0" y="0">-100</tspan></text>
      <text class="st11" transform="translate(24.21 157.15)"><tspan x="0" y="0">-50</tspan></text>
      <text class="st11" transform="translate(32.04 124.98)"><tspan x="0" y="0">0</tspan></text>
      <text class="st11" transform="translate(27.14 92.8)"><tspan x="0" y="0">50</tspan></text>
      <text class="st11" transform="translate(22.25 60.62)"><tspan x="0" y="0">100</tspan></text>
      <text class="st11" transform="translate(22.25 28.45)"><tspan x="0" y="0">150</tspan></text>
      <line class="st1" x1="39.12" y1="218.36" x2="41.86" y2="218.36"/>
      <line class="st1" x1="39.12" y1="186.18" x2="41.86" y2="186.18"/>
      <line class="st1" x1="39.12" y1="154" x2="41.86" y2="154"/>
      <line class="st1" x1="39.12" y1="121.83" x2="41.86" y2="121.83"/>
      <line class="st1" x1="39.12" y1="89.65" x2="41.86" y2="89.65"/>
      <line class="st1" x1="39.12" y1="57.47" x2="41.86" y2="57.47"/>
      <line class="st1" x1="39.12" y1="25.3" x2="41.86" y2="25.3"/>
      <line class="st1" x1="97.26" y1="222.32" x2="97.26" y2="219.58"/>
      <line class="st1" x1="167.05" y1="222.32" x2="167.05" y2="219.58"/>
      <line class="st1" x1="236.84" y1="222.32" x2="236.84" y2="219.58"/>
      <line class="st1" x1="306.63" y1="222.32" x2="306.63" y2="219.58"/>
      <text class="st11" transform="translate(88.45 230.81)"><tspan x="0" y="0">-100</tspan></text>
      <text class="st11" transform="translate(164.6 230.81)"><tspan x="0" y="0">0</tspan></text>
      <text class="st11" transform="translate(229.5 230.81)"><tspan x="0" y="0">100</tspan></text>
      <text class="st11" transform="translate(299.29 230.81)"><tspan x="0" y="0">200</tspan></text>
      <text class="st10" transform="translate(144.99 244)"><tspan x="0" y="0">PC1 (23.9%)</tspan></text>
      <text class="st10" transform="translate(14.08 155.18) rotate(-90)"><tspan x="0" y="0">PC2 (17.2%)</tspan></text>
      <rect class="st12" x="327.77" y="66.01" width="98.75" height="109.64"/>
      <text class="st10" transform="translate(333.25 81.35)"><tspan x="0" y="0">Light condition:</tspan></text>
      <text class="st10" transform="translate(333.25 94.31)"><tspan x="0" y="0">Genotype</tspan></text>
      <circle class="st7" cx="341.89" cy="109.69" r="2.49"/>
      <circle class="st6" cx="341.89" cy="126.97" r="2.49"/>
      <circle class="st5" cx="341.89" cy="144.25" r="2.49"/>
      <circle class="st3" cx="341.89" cy="161.53" r="2.49"/>
      <text class="st8" transform="translate(356.01 113.27)"><tspan x="0" y="0">dark:WT</tspan></text>
      <text class="st8" transform="translate(356.01 130.55)"><tspan x="0" y="0">light:WT</tspan></text>
      <text class="st8" transform="translate(356.01 147.83)"><tspan x="0" y="0">dark:Bmal1KO</tspan></text>
      <text class="st8" transform="translate(356.01 165.11)"><tspan x="0" y="0">light:Bmal1KO</tspan></text>
    </g>
  </g>
</svg>