<?xml version="1.0" encoding="UTF-8"?>
<svg id="Layer_1" xmlns="http://www.w3.org/2000/svg" xmlns:xlink="http://www.w3.org/1999/xlink" version="1.1" viewBox="0 0 576 360">
  <!-- Generator: Adobe Illustrator 30.2.1, SVG Export Plug-In . SVG Version: 2.1.1 Build 1)  -->
  <defs>
    <style>
      .st0, .st1, .st2 {
        fill: none;
      }

      .st3 {
        font-size: 11px;
      }

      .st3, .st4, .st5, .st6 {
        font-family: ArialMT, Arial;
        isolation: isolate;
      }

      .st7 {
        fill: #c77cff;
        stroke: #c77cff;
      }

      .st7, .st8, .st1, .st2, .st9, .st10, .st11 {
        stroke-linejoin: round;
      }

      .st7, .st8, .st2, .st9, .st10, .st11 {
        stroke-linecap: round;
      }

      .st7, .st9, .st10, .st11 {
        stroke-width: .71px;
      }

      .st8 {
        stroke: #fff;
      }

      .st8, .st1 {
        stroke-width: 1.07px;
      }

      .st8, .st12 {
        fill: #fff;
      }

      .st4 {
        font-size: 12px;
      }

      .st1 {
        stroke: #333;
      }

      .st13 {
        clip-path: url(#clippath-1);
      }

      .st14 {
        clip-path: url(#clippath-2);
      }

      .st2 {
        stroke: #000;
        stroke-width: 1.28px;
      }

      .st9 {
        fill: #00bfc4;
        stroke: #00bfc4;
      }

      .st5 {
        font-size: 8.8px;
      }

      .st10 {
        fill: #7cae00;
        stroke: #7cae00;
      }

      .st11 {
        fill: #f8766d;
        stroke: #f8766d;
      }

      .st15 {
        letter-spacing: .03em;
      }

      .st16 {
        clip-path: url(#clippath);
      }

      .st17 {
        letter-spacing: .01em;
      }

      .st6 {
        font-size: 7.11px;
      }

      .st18 {
        letter-spacing: 0em;
      }
    </style>
    <clipPath id="clippath">
      <rect class="st0" y="0" width="576" height="360"/>
    </clipPath>
    <clipPath id="clippath-1">
      <rect class="st0" x="36.97" y="22.08" width="381.29" height="305.51"/>
    </clipPath>
    <clipPath id="clippath-2">
      <rect class="st0" y="0" width="576" height="360"/>
    </clipPath>
  </defs>
  <rect class="st12" y="0" width="576" height="360"/>
  <g class="st16">
    <rect class="st8" y="0" width="576" height="360"/>
  </g>
  <g class="st13">
    <g>
      <rect class="st12" x="36.97" y="22.08" width="381.29" height="305.51"/>
      <circle class="st11" cx="157.08" cy="196.26" r="2.49"/>
      <circle class="st11" cx="201.39" cy="230.75" r="2.49"/>
      <circle class="st11" cx="161.91" cy="200.07" r="2.49"/>
      <circle class="st11" cx="240.15" cy="275.14" r="2.49"/>
      <circle class="st10" cx="120.55" cy="175.47" r="2.49"/>
      <circle class="st10" cx="147.21" cy="212.76" r="2.49"/>
      <circle class="st10" cx="168.23" cy="220.56" r="2.49"/>
      <circle class="st10" cx="192.38" cy="233.44" r="2.49"/>
      <circle class="st10" cx="126.97" cy="196.55" r="2.49"/>
      <circle class="st10" cx="194.97" cy="256.5" r="2.49"/>
      <circle class="st10" cx="310.02" cy="305.98" r="2.49"/>
      <circle class="st10" cx="257.04" cy="278.74" r="2.49"/>
      <circle class="st10" cx="198.62" cy="237.37" r="2.49"/>
      <circle class="st10" cx="181.6" cy="249.82" r="2.49"/>
      <circle class="st10" cx="181.45" cy="229.51" r="2.49"/>
      <circle class="st10" cx="155.93" cy="224.55" r="2.49"/>
      <circle class="st11" cx="219.38" cy="249.87" r="2.49"/>
      <circle class="st11" cx="246.82" cy="276.72" r="2.49"/>
      <circle class="st11" cx="289.93" cy="260.42" r="2.49"/>
      <circle class="st11" cx="177.15" cy="224.06" r="2.49"/>
      <circle class="st11" cx="206.41" cy="242.85" r="2.49"/>
      <circle class="st11" cx="132.2" cy="153.14" r="2.49"/>
      <circle class="st11" cx="163.45" cy="193.64" r="2.49"/>
      <circle class="st11" cx="145.18" cy="179.38" r="2.49"/>
      <circle class="st11" cx="133.16" cy="175.92" r="2.49"/>
      <circle class="st11" cx="165.04" cy="217.76" r="2.49"/>
      <circle class="st11" cx="226.48" cy="251.15" r="2.49"/>
      <circle class="st11" cx="209.65" cy="241.03" r="2.49"/>
      <circle class="st10" cx="198.27" cy="211.98" r="2.49"/>
      <circle class="st10" cx="161.4" cy="201.01" r="2.49"/>
      <circle class="st10" cx="159.01" cy="212.63" r="2.49"/>
      <circle class="st10" cx="140.23" cy="182.35" r="2.49"/>
      <circle class="st10" cx="202.08" cy="232.16" r="2.49"/>
      <circle class="st10" cx="124.91" cy="169.84" r="2.49"/>
      <circle class="st10" cx="273.31" cy="313.7" r="2.49"/>
      <circle class="st10" cx="235.69" cy="259.63" r="2.49"/>
      <circle class="st10" cx="193.7" cy="240.95" r="2.49"/>
      <circle class="st10" cx="225.75" cy="262.77" r="2.49"/>
      <circle class="st10" cx="190.75" cy="248.91" r="2.49"/>
      <circle class="st10" cx="213.19" cy="278.91" r="2.49"/>
      <circle class="st11" cx="293.78" cy="304.03" r="2.49"/>
      <circle class="st11" cx="70.34" cy="120.46" r="2.49"/>
      <circle class="st11" cx="204.91" cy="236.38" r="2.49"/>
      <circle class="st11" cx="221.09" cy="204.46" r="2.49"/>
      <circle class="st11" cx="226.68" cy="245.79" r="2.49"/>
      <circle class="st11" cx="167.6" cy="215.59" r="2.49"/>
      <circle class="st11" cx="224.66" cy="228.83" r="2.49"/>
      <circle class="st11" cx="256.51" cy="271.98" r="2.49"/>
      <circle class="st9" cx="235.42" cy="121.69" r="2.49"/>
      <circle class="st9" cx="87.86" cy="69.83" r="2.49"/>
      <circle class="st9" cx="210.86" cy="102.26" r="2.49"/>
      <circle class="st9" cx="376.41" cy="167.75" r="2.49"/>
      <circle class="st7" cx="331.97" cy="160.82" r="2.49"/>
      <circle class="st7" cx="330.09" cy="134.88" r="2.49"/>
      <circle class="st7" cx="388.61" cy="118.4" r="2.49"/>
      <circle class="st7" cx="254.16" cy="109.18" r="2.49"/>
      <circle class="st7" cx="225.23" cy="103.52" r="2.49"/>
      <circle class="st7" cx="54.3" cy="35.96" r="2.49"/>
      <circle class="st7" cx="400.93" cy="135.78" r="2.49"/>
      <circle class="st7" cx="220.41" cy="52.51" r="2.49"/>
      <circle class="st7" cx="230.35" cy="112.98" r="2.49"/>
      <circle class="st7" cx="298.22" cy="126.56" r="2.49"/>
      <circle class="st7" cx="259.78" cy="107.62" r="2.49"/>
      <circle class="st9" cx="353.15" cy="126.35" r="2.49"/>
      <circle class="st9" cx="242.07" cy="117.83" r="2.49"/>
      <circle class="st9" cx="332.56" cy="144.97" r="2.49"/>
      <circle class="st9" cx="379.09" cy="159.55" r="2.49"/>
      <circle class="st9" cx="272.15" cy="122.46" r="2.49"/>
      <circle class="st9" cx="232.41" cy="111.85" r="2.49"/>
      <circle class="st9" cx="292.73" cy="137.91" r="2.49"/>
      <circle class="st9" cx="321.04" cy="128.21" r="2.49"/>
      <circle class="st9" cx="159.52" cy="86.14" r="2.49"/>
      <circle class="st9" cx="256.66" cy="115.47" r="2.49"/>
      <circle class="st9" cx="249.85" cy="113.41" r="2.49"/>
      <circle class="st7" cx="229.45" cy="115.43" r="2.49"/>
      <circle class="st7" cx="274.51" cy="147" r="2.49"/>
      <circle class="st7" cx="344.17" cy="154.23" r="2.49"/>
      <circle class="st7" cx="303.88" cy="128.96" r="2.49"/>
      <circle class="st7" cx="248.26" cy="96.58" r="2.49"/>
      <circle class="st7" cx="164.98" cy="96.47" r="2.49"/>
      <circle class="st7" cx="244.92" cy="103.85" r="2.49"/>
      <circle class="st7" cx="159.27" cy="107.81" r="2.49"/>
      <circle class="st7" cx="245.04" cy="127.61" r="2.49"/>
      <circle class="st7" cx="220.32" cy="101.92" r="2.49"/>
      <circle class="st7" cx="196.13" cy="91.68" r="2.49"/>
      <circle class="st7" cx="242.43" cy="120.96" r="2.49"/>
      <circle class="st9" cx="245.17" cy="122.69" r="2.49"/>
      <circle class="st9" cx="125.79" cy="81.22" r="2.49"/>
      <circle class="st9" cx="364.52" cy="156.5" r="2.49"/>
      <circle class="st9" cx="239.25" cy="119.25" r="2.49"/>
      <circle class="st9" cx="243.16" cy="119.01" r="2.49"/>
      <circle class="st9" cx="165.66" cy="83.36" r="2.49"/>
      <circle class="st9" cx="199.15" cy="102.89" r="2.49"/>
      <circle class="st9" cx="214.52" cy="109.92" r="2.49"/>
      <text class="st6" transform="translate(157.87 195.24)"><tspan x="0" y="0">0</tspan></text>
      <text class="st6" transform="translate(202.18 229.73)"><tspan x="0" y="0">0</tspan></text>
      <text class="st6" transform="translate(162.7 199.05)"><tspan x="0" y="0">0</tspan></text>
      <text class="st6" transform="translate(240.94 274.13)"><tspan x="0" y="0">0</tspan></text>
      <text class="st6" transform="translate(121.34 174.45)"><tspan x="0" y="0">4</tspan></text>
      <text class="st6" transform="translate(148 211.74)"><tspan x="0" y="0">4</tspan></text>
      <text class="st6" transform="translate(169.02 219.54)"><tspan x="0" y="0">4</tspan></text>
      <text class="st6" transform="translate(193.17 232.42)"><tspan x="0" y="0">4</tspan></text>
      <text class="st6" transform="translate(127.76 195.53)"><tspan x="0" y="0">8</tspan></text>
      <text class="st6" transform="translate(195.77 255.49)"><tspan x="0" y="0">8</tspan></text>
      <text class="st6" transform="translate(310.81 304.97)"><tspan x="0" y="0">8</tspan></text>
      <text class="st6" transform="translate(257.83 277.72)"><tspan x="0" y="0">8</tspan></text>
      <text class="st6" transform="translate(200.2 236.35)"><tspan x="0" y="0">12</tspan></text>
      <text class="st6" transform="translate(183.18 248.8)"><tspan x="0" y="0">12</tspan></text>
      <text class="st6" transform="translate(183.03 228.49)"><tspan x="0" y="0">12</tspan></text>
      <text class="st6" transform="translate(157.51 223.53)"><tspan x="0" y="0">12</tspan></text>
      <text class="st6" transform="translate(220.96 248.85)"><tspan x="0" y="0">16</tspan></text>
      <text class="st6" transform="translate(248.4 275.7)"><tspan x="0" y="0">16</tspan></text>
      <text class="st6" transform="translate(291.51 259.4)"><tspan x="0" y="0">16</tspan></text>
      <text class="st6" transform="translate(178.74 223.04)"><tspan x="0" y="0">16</tspan></text>
      <text class="st6" transform="translate(207.99 241.83)"><tspan x="0" y="0">20</tspan></text>
      <text class="st6" transform="translate(133.78 152.12)"><tspan x="0" y="0">20</tspan></text>
      <text class="st6" transform="translate(165.03 192.62)"><tspan x="0" y="0">20</tspan></text>
      <text class="st6" transform="translate(146.76 178.37)"><tspan x="0" y="0">20</tspan></text>
      <text class="st6" transform="translate(134.74 174.9)"><tspan x="0" y="0">24</tspan></text>
      <text class="st6" transform="translate(166.62 216.74)"><tspan x="0" y="0">24</tspan></text>
      <text class="st6" transform="translate(228.06 250.13)"><tspan x="0" y="0">24</tspan></text>
      <text class="st6" transform="translate(211.23 240.01)"><tspan x="0" y="0">24</tspan></text>
      <text class="st6" transform="translate(199.85 210.97)"><tspan x="0" y="0">28</tspan></text>
      <text class="st6" transform="translate(162.98 200)"><tspan x="0" y="0">28</tspan></text>
      <text class="st6" transform="translate(160.6 211.61)"><tspan x="0" y="0">28</tspan></text>
      <text class="st6" transform="translate(141.81 181.33)"><tspan x="0" y="0">28</tspan></text>
      <text class="st6" transform="translate(203.66 231.14)"><tspan x="0" y="0">32</tspan></text>
      <text class="st6" transform="translate(126.49 168.82)"><tspan x="0" y="0">32</tspan></text>
      <text class="st6" transform="translate(274.89 312.68)"><tspan x="0" y="0">32</tspan></text>
      <text class="st6" transform="translate(237.27 258.61)"><tspan x="0" y="0">32</tspan></text>
      <text class="st6" transform="translate(195.28 239.94)"><tspan x="0" y="0">36</tspan></text>
      <text class="st6" transform="translate(227.33 261.75)"><tspan x="0" y="0">36</tspan></text>
      <text class="st6" transform="translate(192.33 247.89)"><tspan x="0" y="0">36</tspan></text>
      <text class="st6" transform="translate(214.77 277.9)"><tspan x="0" y="0">36</tspan></text>
      <text class="st6" transform="translate(295.36 303.02)"><tspan x="0" y="0">40</tspan></text>
      <text class="st6" transform="translate(71.92 119.44)"><tspan x="0" y="0">40</tspan></text>
      <text class="st6" transform="translate(206.49 235.36)"><tspan x="0" y="0">40</tspan></text>
      <text class="st6" transform="translate(222.67 203.44)"><tspan x="0" y="0">40</tspan></text>
      <text class="st6" transform="translate(228.26 244.77)"><tspan x="0" y="0">44</tspan></text>
      <text class="st6" transform="translate(169.18 214.57)"><tspan x="0" y="0">44</tspan></text>
      <text class="st6" transform="translate(226.24 227.81)"><tspan x="0" y="0">44</tspan></text>
      <text class="st6" transform="translate(258.09 270.96)"><tspan x="0" y="0">44</tspan></text>
      <text class="st6" transform="translate(236.21 120.67)"><tspan x="0" y="0">0</tspan></text>
      <text class="st6" transform="translate(88.65 68.81)"><tspan x="0" y="0">0</tspan></text>
      <text class="st6" transform="translate(211.65 101.24)"><tspan x="0" y="0">0</tspan></text>
      <text class="st6" transform="translate(377.2 166.73)"><tspan x="0" y="0">0</tspan></text>
      <text class="st6" transform="translate(332.76 159.8)"><tspan x="0" y="0">4</tspan></text>
      <text class="st6" transform="translate(330.88 133.87)"><tspan x="0" y="0">4</tspan></text>
      <text class="st6" transform="translate(389.4 117.38)"><tspan x="0" y="0">4</tspan></text>
      <text class="st6" transform="translate(254.95 108.16)"><tspan x="0" y="0">4</tspan></text>
      <text class="st6" transform="translate(226.02 102.5)"><tspan x="0" y="0">8</tspan></text>
      <text class="st6" transform="translate(55.09 34.94)"><tspan x="0" y="0">8</tspan></text>
      <text class="st6" transform="translate(401.72 134.76)"><tspan x="0" y="0">8</tspan></text>
      <text class="st6" transform="translate(221.99 51.49)"><tspan x="0" y="0">12</tspan></text>
      <text class="st6" transform="translate(231.93 111.96)"><tspan x="0" y="0">12</tspan></text>
      <text class="st6" transform="translate(299.81 125.54)"><tspan x="0" y="0">12</tspan></text>
      <text class="st6" transform="translate(261.36 106.6)"><tspan x="0" y="0">12</tspan></text>
      <text class="st6" transform="translate(354.73 125.33)"><tspan x="0" y="0">16</tspan></text>
      <text class="st6" transform="translate(243.65 116.82)"><tspan x="0" y="0">16</tspan></text>
      <text class="st6" transform="translate(334.15 143.95)"><tspan x="0" y="0">16</tspan></text>
      <text class="st6" transform="translate(380.67 158.53)"><tspan x="0" y="0">16</tspan></text>
      <text class="st6" transform="translate(273.73 121.44)"><tspan x="0" y="0">20</tspan></text>
      <text class="st6" transform="translate(233.99 110.83)"><tspan x="0" y="0">20</tspan></text>
      <text class="st6" transform="translate(294.31 136.89)"><tspan x="0" y="0">20</tspan></text>
      <text class="st6" transform="translate(322.62 127.19)"><tspan x="0" y="0">24</tspan></text>
      <text class="st6" transform="translate(161.11 85.13)"><tspan x="0" y="0">24</tspan></text>
      <text class="st6" transform="translate(258.24 114.45)"><tspan x="0" y="0">24</tspan></text>
      <text class="st6" transform="translate(251.43 112.39)"><tspan x="0" y="0">24</tspan></text>
      <text class="st6" transform="translate(231.03 114.41)"><tspan x="0" y="0">28</tspan></text>
      <text class="st6" transform="translate(276.09 145.98)"><tspan x="0" y="0">28</tspan></text>
      <text class="st6" transform="translate(345.75 153.21)"><tspan x="0" y="0">28</tspan></text>
      <text class="st6" transform="translate(305.46 127.95)"><tspan x="0" y="0">28</tspan></text>
      <text class="st6" transform="translate(249.84 95.56)"><tspan x="0" y="0">32</tspan></text>
      <text class="st6" transform="translate(166.56 95.45)"><tspan x="0" y="0">32</tspan></text>
      <text class="st6" transform="translate(246.5 102.83)"><tspan x="0" y="0">32</tspan></text>
      <text class="st6" transform="translate(160.85 106.8)"><tspan x="0" y="0">32</tspan></text>
      <text class="st6" transform="translate(246.62 126.6)"><tspan x="0" y="0">36</tspan></text>
      <text class="st6" transform="translate(221.91 100.9)"><tspan x="0" y="0">36</tspan></text>
      <text class="st6" transform="translate(197.71 90.66)"><tspan x="0" y="0">36</tspan></text>
      <text class="st6" transform="translate(244.01 119.95)"><tspan x="0" y="0">36</tspan></text>
      <text class="st6" transform="translate(246.75 121.67)"><tspan x="0" y="0">40</tspan></text>
      <text class="st6" transform="translate(127.37 80.2)"><tspan x="0" y="0">40</tspan></text>
      <text class="st6" transform="translate(366.1 155.48)"><tspan x="0" y="0">40</tspan></text>
      <text class="st6" transform="translate(240.83 118.23)"><tspan x="0" y="0">40</tspan></text>
      <text class="st6" transform="translate(244.74 117.99)"><tspan x="0" y="0">44</tspan></text>
      <text class="st6" transform="translate(167.24 82.34)"><tspan x="0" y="0">44</tspan></text>
      <text class="st6" transform="translate(200.73 101.87)"><tspan x="0" y="0">44</tspan></text>
      <text class="st6" transform="translate(216.1 108.9)"><tspan x="0" y="0">44</tspan></text>
      <rect class="st2" x="36.97" y="22.08" width="381.29" height="305.51"/>
    </g>
  </g>
  <g class="st14">
    <g>
      <text class="st5" transform="translate(19.32 316.29)"><tspan x="0" y="0">-60</tspan></text>
      <text class="st5" transform="translate(19.32 246.65)"><tspan x="0" y="0">-30</tspan></text>
      <text class="st5" transform="translate(27.15 177.01)"><tspan x="0" y="0">0</tspan></text>
      <text class="st5" transform="translate(22.25 107.37)"><tspan x="0" y="0">30</tspan></text>
      <text class="st5" transform="translate(22.25 37.74)"><tspan x="0" y="0">60</tspan></text>
      <line class="st1" x1="34.23" y1="313.14" x2="36.97" y2="313.14"/>
      <line class="st1" x1="34.23" y1="243.5" x2="36.97" y2="243.5"/>
      <line class="st1" x1="34.23" y1="173.86" x2="36.97" y2="173.86"/>
      <line class="st1" x1="34.23" y1="104.22" x2="36.97" y2="104.22"/>
      <line class="st1" x1="34.23" y1="34.59" x2="36.97" y2="34.59"/>
      <line class="st1" x1="110.7" y1="330.32" x2="110.7" y2="327.58"/>
      <line class="st1" x1="222.99" y1="330.32" x2="222.99" y2="327.58"/>
      <line class="st1" x1="335.27" y1="330.32" x2="335.27" y2="327.58"/>
      <text class="st5" transform="translate(101.89 338.81)"><tspan x="0" y="0">-100</tspan></text>
      <text class="st5" transform="translate(220.54 338.81)"><tspan x="0" y="0">0</tspan></text>
      <text class="st5" transform="translate(327.93 338.81)"><tspan x="0" y="0">100</tspan></text>
      <text class="st4" transform="translate(193.26 352)"><tspan x="0" y="0">PC1 (45.4%)</tspan></text>
      <text class="st4" transform="translate(14.08 205.84) rotate(-90)"><tspan x="0" y="0">PC2 (9.5%)</tspan></text>
      <rect class="st12" x="429.22" y="126.95" width="141.3" height="95.75"/>
      <text class="st3" transform="translate(434.7 141.47)"><tspan x="0" y="0">Circadian</tspan><tspan class="st18" x="46.46" y="0"> </tspan><tspan x="49.61" y="0">phase:Genotype</tspan></text>
      <circle class="st11" cx="443.34" cy="156.75" r="2.49"/>
      <circle class="st10" cx="443.34" cy="174.03" r="2.49"/>
      <circle class="st9" cx="443.34" cy="191.31" r="2.49"/>
      <circle class="st7" cx="443.34" cy="208.59" r="2.49"/>
      <text class="st5" transform="translate(457.46 159.9)"><tspan class="st17" x="0" y="0">dark:W</tspan><tspan x="28.66" y="0">T</tspan></text>
      <text class="st5" transform="translate(457.46 177.18)"><tspan class="st15" x="0" y="0">light:W</tspan><tspan x="28.48" y="0">T</tspan></text>
      <text class="st5" transform="translate(457.46 194.46)"><tspan x="0" y="0">dark:PerDKO</tspan></text>
      <text class="st5" transform="translate(457.46 211.74)"><tspan x="0" y="0">light:PerDKO</tspan></text>
    </g>
  </g>
</svg>