<?xml version="1.0" encoding="UTF-8"?>
<svg id="Layer_1" xmlns="http://www.w3.org/2000/svg" xmlns:xlink="http://www.w3.org/1999/xlink" version="1.1" viewBox="0 0 576 360">
  <!-- Generator: Adobe Illustrator 30.2.1, SVG Export Plug-In . SVG Version: 2.1.1 Build 1)  -->
  <defs>
    <style>
      .st0, .st1, .st2 {
        fill: none;
      }

      .st3 {
        font-size: 11px;
      }

      .st3, .st4, .st5, .st6 {
        font-family: ArialMT, Arial;
        isolation: isolate;
      }

      .st7 {
        fill: #c77cff;
        stroke: #c77cff;
      }

      .st7, .st8, .st1, .st2, .st9, .st10, .st11 {
        stroke-linejoin: round;
      }

      .st7, .st8, .st2, .st9, .st10, .st11 {
        stroke-linecap: round;
      }

      .st7, .st9, .st10, .st11 {
        stroke-width: .71px;
      }

      .st12 {
        font-family: MyriadPro-Regular, 'Myriad Pro';
      }

      .st12, .st4 {
        font-size: 12px;
      }

      .st8 {
        stroke: #fff;
      }

      .st8, .st1 {
        stroke-width: 1.07px;
      }

      .st8, .st13 {
        fill: #fff;
      }

      .st1 {
        stroke: #333;
      }

      .st14 {
        clip-path: url(#clippath-1);
      }

      .st15 {
        clip-path: url(#clippath-2);
      }

      .st2 {
        stroke: #000;
        stroke-width: 1.28px;
      }

      .st9 {
        fill: #00bfc4;
        stroke: #00bfc4;
      }

      .st5 {
        font-size: 8.8px;
      }

      .st10 {
        fill: #7cae00;
        stroke: #7cae00;
      }

      .st11 {
        fill: #f8766d;
        stroke: #f8766d;
      }

      .st16 {
        letter-spacing: .1em;
      }

      .st17 {
        letter-spacing: .12em;
      }

      .st18 {
        clip-path: url(#clippath);
      }

      .st6 {
        font-size: 7.11px;
      }

      .st19 {
        letter-spacing: .01em;
      }
    </style>
    <clipPath id="clippath">
      <rect class="st0" y="0" width="576" height="360"/>
    </clipPath>
    <clipPath id="clippath-1">
      <rect class="st0" x="36.97" y="22.08" width="389.82" height="305.51"/>
    </clipPath>
    <clipPath id="clippath-2">
      <rect class="st0" y="0" width="576" height="360"/>
    </clipPath>
  </defs>
  <g>
    <rect class="st13" y="0" width="576" height="360"/>
    <g class="st18">
      <rect class="st8" y="0" width="576" height="360"/>
    </g>
    <g class="st14">
      <g>
        <rect class="st13" x="36.97" y="22.08" width="389.82" height="305.51"/>
        <circle class="st11" cx="156.96" cy="232.76" r="2.49"/>
        <circle class="st11" cx="231.66" cy="276.49" r="2.49"/>
        <circle class="st11" cx="216.09" cy="276.23" r="2.49"/>
        <circle class="st11" cx="200.68" cy="233.17" r="2.49"/>
        <circle class="st11" cx="196.77" cy="252.17" r="2.49"/>
        <circle class="st10" cx="141.87" cy="222.84" r="2.49"/>
        <circle class="st10" cx="209.56" cy="232.54" r="2.49"/>
        <circle class="st10" cx="139.18" cy="195.18" r="2.49"/>
        <circle class="st10" cx="185.23" cy="197.17" r="2.49"/>
        <circle class="st10" cx="173.62" cy="215.87" r="2.49"/>
        <circle class="st10" cx="210.45" cy="257.47" r="2.49"/>
        <circle class="st10" cx="242.35" cy="241.65" r="2.49"/>
        <circle class="st10" cx="208.75" cy="215.7" r="2.49"/>
        <circle class="st10" cx="187.87" cy="234.63" r="2.49"/>
        <circle class="st10" cx="192.38" cy="235.88" r="2.49"/>
        <circle class="st10" cx="209.72" cy="263.5" r="2.49"/>
        <circle class="st10" cx="212.65" cy="282.75" r="2.49"/>
        <circle class="st10" cx="203.85" cy="268.64" r="2.49"/>
        <circle class="st10" cx="321.51" cy="288.01" r="2.49"/>
        <circle class="st10" cx="237.92" cy="253.03" r="2.49"/>
        <circle class="st11" cx="54.69" cy="254.15" r="2.49"/>
        <circle class="st11" cx="183.06" cy="286.74" r="2.49"/>
        <circle class="st11" cx="207.16" cy="287.71" r="2.49"/>
        <circle class="st11" cx="218.57" cy="302.06" r="2.49"/>
        <circle class="st11" cx="196.33" cy="279.56" r="2.49"/>
        <circle class="st11" cx="303.78" cy="293.51" r="2.49"/>
        <circle class="st11" cx="268.73" cy="313.7" r="2.49"/>
        <circle class="st11" cx="218.71" cy="235.32" r="2.49"/>
        <circle class="st11" cx="172.2" cy="233.42" r="2.49"/>
        <circle class="st11" cx="209.28" cy="282.81" r="2.49"/>
        <circle class="st9" cx="202.04" cy="122.44" r="2.49"/>
        <circle class="st9" cx="188.95" cy="106.4" r="2.49"/>
        <circle class="st9" cx="229.01" cy="156.66" r="2.49"/>
        <circle class="st9" cx="170.69" cy="92.7" r="2.49"/>
        <circle class="st9" cx="214.55" cy="141.19" r="2.49"/>
        <circle class="st7" cx="205.82" cy="84.75" r="2.49"/>
        <circle class="st7" cx="190.47" cy="88.4" r="2.49"/>
        <circle class="st7" cx="266.26" cy="86.54" r="2.49"/>
        <circle class="st7" cx="206.71" cy="75.86" r="2.49"/>
        <circle class="st7" cx="409.07" cy="111.57" r="2.49"/>
        <circle class="st7" cx="165.08" cy="55.33" r="2.49"/>
        <circle class="st7" cx="289.27" cy="58.47" r="2.49"/>
        <circle class="st7" cx="237.5" cy="92.02" r="2.49"/>
        <circle class="st7" cx="85.23" cy="35.96" r="2.49"/>
        <circle class="st7" cx="184.13" cy="63.61" r="2.49"/>
        <circle class="st7" cx="359.6" cy="106.29" r="2.49"/>
        <circle class="st7" cx="241.31" cy="84.85" r="2.49"/>
        <circle class="st7" cx="205.5" cy="90.07" r="2.49"/>
        <circle class="st7" cx="203.51" cy="87.25" r="2.49"/>
        <circle class="st7" cx="329.64" cy="104.86" r="2.49"/>
        <circle class="st9" cx="150.64" cy="110.64" r="2.49"/>
        <circle class="st9" cx="196.01" cy="126.7" r="2.49"/>
        <circle class="st9" cx="165.49" cy="127.06" r="2.49"/>
        <circle class="st9" cx="167.95" cy="119.25" r="2.49"/>
        <circle class="st9" cx="151.59" cy="111.22" r="2.49"/>
        <circle class="st9" cx="189.25" cy="119.82" r="2.49"/>
        <circle class="st9" cx="249.81" cy="139.49" r="2.49"/>
        <circle class="st9" cx="304.78" cy="155.34" r="2.49"/>
        <circle class="st9" cx="207.82" cy="131.65" r="2.49"/>
        <circle class="st9" cx="216.3" cy="113.18" r="2.49"/>
        <text class="st6" transform="translate(157.75 231.75)"><tspan x="0" y="0">0</tspan></text>
        <text class="st6" transform="translate(232.45 275.47)"><tspan x="0" y="0">0</tspan></text>
        <text class="st6" transform="translate(216.88 275.21)"><tspan x="0" y="0">0</tspan></text>
        <text class="st6" transform="translate(201.47 232.15)"><tspan x="0" y="0">0</tspan></text>
        <text class="st6" transform="translate(197.56 251.15)"><tspan x="0" y="0">0</tspan></text>
        <text class="st6" transform="translate(143.45 221.82)"><tspan x="0" y="0">04</tspan></text>
        <text class="st6" transform="translate(211.14 231.52)"><tspan x="0" y="0">04</tspan></text>
        <text class="st6" transform="translate(140.76 194.16)"><tspan x="0" y="0">04</tspan></text>
        <text class="st6" transform="translate(186.81 196.15)"><tspan x="0" y="0">04</tspan></text>
        <text class="st6" transform="translate(175.2 214.85)"><tspan x="0" y="0">04</tspan></text>
        <text class="st6" transform="translate(212.03 256.45)"><tspan x="0" y="0">08</tspan></text>
        <text class="st6" transform="translate(243.93 240.63)"><tspan x="0" y="0">08</tspan></text>
        <text class="st6" transform="translate(210.33 214.68)"><tspan x="0" y="0">08</tspan></text>
        <text class="st6" transform="translate(189.45 233.61)"><tspan x="0" y="0">08</tspan></text>
        <text class="st6" transform="translate(193.96 234.86)"><tspan x="0" y="0">08</tspan></text>
        <text class="st6" transform="translate(211.3 262.49)"><tspan x="0" y="0">12</tspan></text>
        <text class="st6" transform="translate(214.23 281.73)"><tspan x="0" y="0">12</tspan></text>
        <text class="st6" transform="translate(205.43 267.62)"><tspan x="0" y="0">12</tspan></text>
        <text class="st6" transform="translate(323.09 286.99)"><tspan x="0" y="0">12</tspan></text>
        <text class="st6" transform="translate(239.5 252.01)"><tspan x="0" y="0">12</tspan></text>
        <text class="st6" transform="translate(56.27 253.13)"><tspan x="0" y="0">16</tspan></text>
        <text class="st6" transform="translate(184.64 285.73)"><tspan x="0" y="0">16</tspan></text>
        <text class="st6" transform="translate(208.74 286.69)"><tspan x="0" y="0">16</tspan></text>
        <text class="st6" transform="translate(220.15 301.04)"><tspan x="0" y="0">16</tspan></text>
        <text class="st6" transform="translate(197.91 278.54)"><tspan x="0" y="0">16</tspan></text>
        <text class="st6" transform="translate(305.36 292.49)"><tspan x="0" y="0">20</tspan></text>
        <text class="st6" transform="translate(270.31 312.68)"><tspan x="0" y="0">20</tspan></text>
        <text class="st6" transform="translate(220.29 234.3)"><tspan x="0" y="0">20</tspan></text>
        <text class="st6" transform="translate(173.78 232.4)"><tspan x="0" y="0">20</tspan></text>
        <text class="st6" transform="translate(210.86 281.79)"><tspan x="0" y="0">20</tspan></text>
        <text class="st6" transform="translate(202.83 121.42)"><tspan x="0" y="0">0</tspan></text>
        <text class="st6" transform="translate(189.74 105.38)"><tspan x="0" y="0">0</tspan></text>
        <text class="st6" transform="translate(229.8 155.64)"><tspan x="0" y="0">0</tspan></text>
        <text class="st6" transform="translate(171.48 91.68)"><tspan x="0" y="0">0</tspan></text>
        <text class="st6" transform="translate(215.34 140.17)"><tspan x="0" y="0">0</tspan></text>
        <text class="st6" transform="translate(207.41 83.74)"><tspan x="0" y="0">04</tspan></text>
        <text class="st6" transform="translate(192.06 87.38)"><tspan x="0" y="0">04</tspan></text>
        <text class="st6" transform="translate(267.84 85.52)"><tspan x="0" y="0">04</tspan></text>
        <text class="st6" transform="translate(208.29 74.84)"><tspan x="0" y="0">04</tspan></text>
        <text class="st6" transform="translate(410.65 110.55)"><tspan x="0" y="0">04</tspan></text>
        <text class="st6" transform="translate(166.66 54.32)"><tspan x="0" y="0">08</tspan></text>
        <text class="st6" transform="translate(290.85 57.45)"><tspan x="0" y="0">08</tspan></text>
        <text class="st6" transform="translate(239.08 91)"><tspan x="0" y="0">08</tspan></text>
        <text class="st6" transform="translate(86.81 34.94)"><tspan x="0" y="0">08</tspan></text>
        <text class="st6" transform="translate(185.72 62.59)"><tspan x="0" y="0">08</tspan></text>
        <text class="st6" transform="translate(361.18 105.27)"><tspan x="0" y="0">12</tspan></text>
        <text class="st6" transform="translate(242.89 83.84)"><tspan x="0" y="0">12</tspan></text>
        <text class="st6" transform="translate(207.08 89.05)"><tspan x="0" y="0">12</tspan></text>
        <text class="st6" transform="translate(205.09 86.23)"><tspan x="0" y="0">12</tspan></text>
        <text class="st6" transform="translate(331.22 103.84)"><tspan x="0" y="0">12</tspan></text>
        <text class="st6" transform="translate(152.22 109.62)"><tspan x="0" y="0">16</tspan></text>
        <text class="st6" transform="translate(197.59 125.68)"><tspan x="0" y="0">16</tspan></text>
        <text class="st6" transform="translate(167.08 126.04)"><tspan x="0" y="0">16</tspan></text>
        <text class="st6" transform="translate(169.53 118.23)"><tspan x="0" y="0">16</tspan></text>
        <text class="st6" transform="translate(153.17 110.2)"><tspan x="0" y="0">16</tspan></text>
        <text class="st6" transform="translate(190.83 118.8)"><tspan x="0" y="0">20</tspan></text>
        <text class="st6" transform="translate(251.39 138.48)"><tspan x="0" y="0">20</tspan></text>
        <text class="st6" transform="translate(306.36 154.32)"><tspan x="0" y="0">20</tspan></text>
        <text class="st6" transform="translate(209.4 130.63)"><tspan x="0" y="0">20</tspan></text>
        <text class="st6" transform="translate(217.89 112.16)"><tspan x="0" y="0">20</tspan></text>
        <rect class="st2" x="36.97" y="22.08" width="389.82" height="305.51"/>
      </g>
    </g>
    <g class="st15">
      <g>
        <text class="st5" transform="translate(19.32 261.04)"><tspan x="0" y="0">-40</tspan></text>
        <text class="st5" transform="translate(27.15 182.22)"><tspan x="0" y="0">0</tspan></text>
        <text class="st5" transform="translate(22.25 103.41)"><tspan x="0" y="0">40</tspan></text>
        <line class="st1" x1="34.23" y1="257.89" x2="36.97" y2="257.89"/>
        <line class="st1" x1="34.23" y1="179.07" x2="36.97" y2="179.07"/>
        <line class="st1" x1="34.23" y1="100.26" x2="36.97" y2="100.26"/>
        <line class="st1" x1="112.05" y1="330.32" x2="112.05" y2="327.58"/>
        <line class="st1" x1="211.59" y1="330.32" x2="211.59" y2="327.58"/>
        <line class="st1" x1="311.14" y1="330.32" x2="311.14" y2="327.58"/>
        <line class="st1" x1="410.69" y1="330.32" x2="410.69" y2="327.58"/>
        <text class="st5" transform="translate(103.24 338.81)"><tspan x="0" y="0">-100</tspan></text>
        <text class="st5" transform="translate(209.14 338.81)"><tspan x="0" y="0">0</tspan></text>
        <text class="st5" transform="translate(303.8 338.81)"><tspan x="0" y="0">100</tspan></text>
        <text class="st5" transform="translate(403.35 338.81)"><tspan x="0" y="0">200</tspan></text>
        <text class="st4" transform="translate(197.53 352)"><tspan x="0" y="0">PC1 (23.9%)</tspan></text>
        <text class="st4" transform="translate(14.08 209.18) rotate(-90)"><tspan x="0" y="0">PC2 (17.2%)</tspan></text>
        <rect class="st13" x="437.75" y="126.95" width="132.77" height="95.75"/>
        <text class="st3" transform="translate(443.23 141.47)"><tspan x="0" y="0">Light</tspan><tspan class="st19" x="23.85" y="0"> </tspan><tspan x="27.02" y="0">condition:Genotype</tspan></text>
        <circle class="st11" cx="451.87" cy="156.75" r="2.49"/>
        <circle class="st10" cx="451.87" cy="174.03" r="2.49"/>
        <circle class="st9" cx="451.87" cy="191.31" r="2.49"/>
        <circle class="st7" cx="451.87" cy="208.59" r="2.49"/>
        <text class="st5" transform="translate(465.99 159.9)"><tspan class="st17" x="0" y="0">dark:</tspan><tspan x="24.92" y="0">W</tspan></text>
        <text class="st5" transform="translate(465.99 177.18)"><tspan class="st16" x="0" y="0">light:</tspan><tspan x="23.92" y="0">W</tspan></text>
        <text class="st5" transform="translate(465.99 194.46)"><tspan x="0" y="0">dark:Bmal1KO</tspan></text>
        <text class="st5" transform="translate(465.99 211.74)"><tspan x="0" y="0">light:Bmal1KO</tspan></text>
      </g>
    </g>
  </g>
  <text class="st12" transform="translate(208.7 -44.91)"><tspan x="0" y="0">Lorem ipsum</tspan></text>
</svg>