<?xml version="1.0" encoding="UTF-8"?>
<svg id="Layer_1" xmlns="http://www.w3.org/2000/svg" xmlns:xlink="http://www.w3.org/1999/xlink" version="1.1" viewBox="0 0 432 252">
  <!-- Generator: Adobe Illustrator 30.2.1, SVG Export Plug-In . SVG Version: 2.1.1 Build 1)  -->
  <defs>
    <style>
      .st0, .st1, .st2 {
        fill: none;
      }

      .st3 {
        fill: #c77cff;
        stroke: #c77cff;
      }

      .st3, .st4, .st1, .st2, .st5, .st6, .st7 {
        stroke-linejoin: round;
      }

      .st3, .st4, .st2, .st5, .st6, .st7 {
        stroke-linecap: round;
      }

      .st3, .st5, .st6, .st7 {
        stroke-width: .71px;
      }

      .st8 {
        font-size: 10px;
      }

      .st8, .st9, .st10, .st11 {
        font-family: ArialMT, Arial;
        isolation: isolate;
      }

      .st4 {
        stroke: #fff;
      }

      .st4, .st1 {
        stroke-width: 1.07px;
      }

      .st4, .st12 {
        fill: #fff;
      }

      .st9 {
        font-size: 8.54px;
      }

      .st10 {
        font-size: 12px;
      }

      .st1 {
        stroke: #333;
      }

      .st13 {
        clip-path: url(#clippath-1);
      }

      .st14 {
        clip-path: url(#clippath-2);
      }

      .st2 {
        stroke: #000;
        stroke-width: 1.28px;
      }

      .st5 {
        fill: #00bfc4;
        stroke: #00bfc4;
      }

      .st11 {
        font-size: 8.8px;
      }

      .st6 {
        fill: #7cae00;
        stroke: #7cae00;
      }

      .st7 {
        fill: #f8766d;
        stroke: #f8766d;
      }

      .st15 {
        clip-path: url(#clippath);
      }
    </style>
    <clipPath id="clippath">
      <rect class="st0" y="0" width="432" height="252"/>
    </clipPath>
    <clipPath id="clippath-1">
      <rect class="st0" x="36.97" y="22.08" width="279.84" height="197.51"/>
    </clipPath>
    <clipPath id="clippath-2">
      <rect class="st0" y="0" width="432" height="252"/>
    </clipPath>
  </defs>
  <rect class="st12" y="0" width="432" height="252"/>
  <g class="st15">
    <rect class="st4" y="0" width="432" height="252"/>
  </g>
  <g class="st13">
    <g>
      <rect class="st12" x="36.97" y="22.08" width="279.84" height="197.51"/>
      <circle class="st7" cx="123.11" cy="158.28" r="2.49"/>
      <circle class="st7" cx="176.73" cy="186.55" r="2.49"/>
      <circle class="st7" cx="165.56" cy="186.39" r="2.49"/>
      <circle class="st7" cx="154.49" cy="158.55" r="2.49"/>
      <circle class="st7" cx="151.69" cy="170.83" r="2.49"/>
      <circle class="st6" cx="112.28" cy="151.87" r="2.49"/>
      <circle class="st6" cx="160.87" cy="158.14" r="2.49"/>
      <circle class="st6" cx="110.35" cy="133.99" r="2.49"/>
      <circle class="st6" cx="143.4" cy="135.27" r="2.49"/>
      <circle class="st6" cx="135.07" cy="147.36" r="2.49"/>
      <circle class="st6" cx="161.51" cy="174.26" r="2.49"/>
      <circle class="st6" cx="184.41" cy="164.03" r="2.49"/>
      <circle class="st6" cx="160.29" cy="147.25" r="2.49"/>
      <circle class="st6" cx="145.3" cy="159.49" r="2.49"/>
      <circle class="st6" cx="148.54" cy="160.3" r="2.49"/>
      <circle class="st6" cx="160.98" cy="178.16" r="2.49"/>
      <circle class="st6" cx="163.08" cy="190.6" r="2.49"/>
      <circle class="st6" cx="156.77" cy="181.48" r="2.49"/>
      <circle class="st6" cx="241.23" cy="194" r="2.49"/>
      <circle class="st6" cx="181.22" cy="171.39" r="2.49"/>
      <circle class="st7" cx="49.69" cy="172.11" r="2.49"/>
      <circle class="st7" cx="141.84" cy="193.18" r="2.49"/>
      <circle class="st7" cx="159.14" cy="193.8" r="2.49"/>
      <circle class="st7" cx="167.34" cy="203.08" r="2.49"/>
      <circle class="st7" cx="151.37" cy="188.54" r="2.49"/>
      <circle class="st7" cx="228.51" cy="197.56" r="2.49"/>
      <circle class="st7" cx="203.35" cy="210.6" r="2.49"/>
      <circle class="st7" cx="167.43" cy="159.93" r="2.49"/>
      <circle class="st7" cx="134.05" cy="158.71" r="2.49"/>
      <circle class="st7" cx="160.67" cy="190.64" r="2.49"/>
      <circle class="st5" cx="155.47" cy="86.96" r="2.49"/>
      <circle class="st5" cx="146.07" cy="76.59" r="2.49"/>
      <circle class="st5" cx="174.83" cy="109.08" r="2.49"/>
      <circle class="st5" cx="132.97" cy="67.73" r="2.49"/>
      <circle class="st5" cx="164.45" cy="99.08" r="2.49"/>
      <circle class="st3" cx="158.19" cy="62.6" r="2.49"/>
      <circle class="st3" cx="147.17" cy="64.95" r="2.49"/>
      <circle class="st3" cx="201.57" cy="63.75" r="2.49"/>
      <circle class="st3" cx="158.82" cy="56.84" r="2.49"/>
      <circle class="st3" cx="304.09" cy="79.93" r="2.49"/>
      <circle class="st3" cx="128.94" cy="43.58" r="2.49"/>
      <circle class="st3" cx="218.09" cy="45.6" r="2.49"/>
      <circle class="st3" cx="180.93" cy="67.29" r="2.49"/>
      <circle class="st3" cx="71.62" cy="31.05" r="2.49"/>
      <circle class="st3" cx="142.62" cy="48.93" r="2.49"/>
      <circle class="st3" cx="268.58" cy="76.52" r="2.49"/>
      <circle class="st3" cx="183.66" cy="62.66" r="2.49"/>
      <circle class="st3" cx="157.95" cy="66.04" r="2.49"/>
      <circle class="st3" cx="156.52" cy="64.21" r="2.49"/>
      <circle class="st3" cx="247.07" cy="75.6" r="2.49"/>
      <circle class="st5" cx="118.57" cy="79.33" r="2.49"/>
      <circle class="st5" cx="151.14" cy="89.71" r="2.49"/>
      <circle class="st5" cx="129.23" cy="89.95" r="2.49"/>
      <circle class="st5" cx="131" cy="84.9" r="2.49"/>
      <circle class="st5" cx="119.25" cy="79.71" r="2.49"/>
      <circle class="st5" cx="146.29" cy="85.27" r="2.49"/>
      <circle class="st5" cx="189.76" cy="97.99" r="2.49"/>
      <circle class="st5" cx="229.22" cy="108.23" r="2.49"/>
      <circle class="st5" cx="159.62" cy="92.91" r="2.49"/>
      <circle class="st5" cx="165.71" cy="80.97" r="2.49"/>
      <text class="st9" transform="translate(124.06 157.06)"><tspan x="0" y="0">0</tspan></text>
      <text class="st9" transform="translate(177.68 185.33)"><tspan x="0" y="0">0</tspan></text>
      <text class="st9" transform="translate(166.94 184.83)"><tspan x="0" y="0">0</tspan></text>
      <text class="st9" transform="translate(154.6 155.78)"><tspan x="0" y="0">0</tspan></text>
      <text class="st9" transform="translate(152.64 169.61)"><tspan x="0" y="0">0</tspan></text>
      <text class="st9" transform="translate(114.18 150.64)"><tspan x="0" y="0">04</tspan></text>
      <text class="st9" transform="translate(161.63 155.69)"><tspan x="0" y="0">04</tspan></text>
      <text class="st9" transform="translate(112.25 132.76)"><tspan x="0" y="0">04</tspan></text>
      <text class="st9" transform="translate(145.3 134.05)"><tspan x="0" y="0">04</tspan></text>
      <text class="st9" transform="translate(136.97 146.14)"><tspan x="0" y="0">04</tspan></text>
      <text class="st9" transform="translate(160.19 170.62)"><tspan x="0" y="0">08</tspan></text>
      <text class="st9" transform="translate(186.31 162.8)"><tspan x="0" y="0">08</tspan></text>
      <text class="st9" transform="translate(162.19 146.03)"><tspan x="0" y="0">08</tspan></text>
      <text class="st9" transform="translate(141.3 156.3)"><tspan x="0" y="0">08</tspan></text>
      <text class="st9" transform="translate(146.94 162.58)"><tspan x="0" y="0">08</tspan></text>
      <text class="st9" transform="translate(163.42 176.94)"><tspan x="0" y="0">12</tspan></text>
      <text class="st9" transform="translate(162.96 191.32)"><tspan x="0" y="0">12</tspan></text>
      <text class="st9" transform="translate(156.88 180.97)"><tspan x="0" y="0">12</tspan></text>
      <text class="st9" transform="translate(243.13 192.77)"><tspan x="0" y="0">12</tspan></text>
      <text class="st9" transform="translate(183.12 170.16)"><tspan x="0" y="0">12</tspan></text>
      <text class="st9" transform="translate(51.59 170.89)"><tspan x="0" y="0">16</tspan></text>
      <text class="st9" transform="translate(143.04 192.76)"><tspan x="0" y="0">16</tspan></text>
      <text class="st9" transform="translate(151.9 201.86)"><tspan x="0" y="0">16</tspan></text>
      <text class="st9" transform="translate(169.24 201.86)"><tspan x="0" y="0">16</tspan></text>
      <text class="st9" transform="translate(152.13 187.71)"><tspan x="0" y="0">16</tspan></text>
      <text class="st9" transform="translate(230.41 196.33)"><tspan x="0" y="0">20</tspan></text>
      <text class="st9" transform="translate(205.25 209.38)"><tspan x="0" y="0">20</tspan></text>
      <text class="st9" transform="translate(170.56 161.35)"><tspan x="0" y="0">20</tspan></text>
      <text class="st9" transform="translate(130.75 157.06)"><tspan x="0" y="0">20</tspan></text>
      <text class="st9" transform="translate(160.67 197.82)"><tspan x="0" y="0">20</tspan></text>
      <text class="st9" transform="translate(156.42 85.74)"><tspan x="0" y="0">0</tspan></text>
      <text class="st9" transform="translate(147.02 75.37)"><tspan x="0" y="0">0</tspan></text>
      <text class="st9" transform="translate(175.78 107.86)"><tspan x="0" y="0">0</tspan></text>
      <text class="st9" transform="translate(133.92 66.51)"><tspan x="0" y="0">0</tspan></text>
      <text class="st9" transform="translate(165.4 97.86)"><tspan x="0" y="0">0</tspan></text>
      <text class="st9" transform="translate(160.09 61.37)"><tspan x="0" y="0">04</tspan></text>
      <text class="st9" transform="translate(149.07 63.73)"><tspan x="0" y="0">04</tspan></text>
      <text class="st9" transform="translate(203.47 62.53)"><tspan x="0" y="0">04</tspan></text>
      <text class="st9" transform="translate(159.7 54.82)"><tspan x="0" y="0">04</tspan></text>
      <text class="st9" transform="translate(305.99 78.71)"><tspan x="0" y="0">04</tspan></text>
      <text class="st9" transform="translate(130.84 42.35)"><tspan x="0" y="0">08</tspan></text>
      <text class="st9" transform="translate(219.99 44.38)"><tspan x="0" y="0">08</tspan></text>
      <text class="st9" transform="translate(183.66 68.32)"><tspan x="0" y="0">08</tspan></text>
      <text class="st9" transform="translate(73.52 29.83)"><tspan x="0" y="0">08</tspan></text>
      <text class="st9" transform="translate(144.52 47.71)"><tspan x="0" y="0">08</tspan></text>
      <text class="st9" transform="translate(270.48 75.3)"><tspan x="0" y="0">12</tspan></text>
      <text class="st9" transform="translate(185.56 61.44)"><tspan x="0" y="0">12</tspan></text>
      <text class="st9" transform="translate(155.69 74.03)"><tspan x="0" y="0">12</tspan></text>
      <text class="st9" transform="translate(158.47 67.58)"><tspan x="0" y="0">12</tspan></text>
      <text class="st9" transform="translate(248.97 74.37)"><tspan x="0" y="0">12</tspan></text>
      <text class="st9" transform="translate(112.01 75.89)"><tspan x="0" y="0">16</tspan></text>
      <text class="st9" transform="translate(144.32 95.84)"><tspan x="0" y="0">16</tspan></text>
      <text class="st9" transform="translate(131.13 88.73)"><tspan x="0" y="0">16</tspan></text>
      <text class="st9" transform="translate(132.9 83.68)"><tspan x="0" y="0">16</tspan></text>
      <text class="st9" transform="translate(121.15 78.48)"><tspan x="0" y="0">16</tspan></text>
      <text class="st9" transform="translate(146.39 83.25)"><tspan x="0" y="0">20</tspan></text>
      <text class="st9" transform="translate(191.66 96.76)"><tspan x="0" y="0">20</tspan></text>
      <text class="st9" transform="translate(231.12 107)"><tspan x="0" y="0">20</tspan></text>
      <text class="st9" transform="translate(161.52 91.69)"><tspan x="0" y="0">20</tspan></text>
      <text class="st9" transform="translate(167.61 79.75)"><tspan x="0" y="0">20</tspan></text>
      <rect class="st2" x="36.97" y="22.08" width="279.84" height="197.51"/>
    </g>
  </g>
  <g class="st14">
    <g>
      <text class="st11" transform="translate(19.32 177.67)"><tspan x="0" y="0">-40</tspan></text>
      <text class="st11" transform="translate(27.15 126.72)"><tspan x="0" y="0">0</tspan></text>
      <text class="st11" transform="translate(22.25 75.77)"><tspan x="0" y="0">40</tspan></text>
      <line class="st1" x1="34.23" y1="174.52" x2="36.97" y2="174.52"/>
      <line class="st1" x1="34.23" y1="123.57" x2="36.97" y2="123.57"/>
      <line class="st1" x1="34.23" y1="72.62" x2="36.97" y2="72.62"/>
      <line class="st1" x1="90.86" y1="222.32" x2="90.86" y2="219.58"/>
      <line class="st1" x1="162.33" y1="222.32" x2="162.33" y2="219.58"/>
      <line class="st1" x1="233.79" y1="222.32" x2="233.79" y2="219.58"/>
      <line class="st1" x1="305.25" y1="222.32" x2="305.25" y2="219.58"/>
      <text class="st11" transform="translate(82.05 230.81)"><tspan x="0" y="0">-100</tspan></text>
      <text class="st11" transform="translate(159.88 230.81)"><tspan x="0" y="0">0</tspan></text>
      <text class="st11" transform="translate(226.45 230.81)"><tspan x="0" y="0">100</tspan></text>
      <text class="st11" transform="translate(297.91 230.81)"><tspan x="0" y="0">200</tspan></text>
      <text class="st10" transform="translate(142.54 244)"><tspan x="0" y="0">PC1 (23.9%)</tspan></text>
      <text class="st10" transform="translate(14.08 155.18) rotate(-90)"><tspan x="0" y="0">PC2 (17.2%)</tspan></text>
      <rect class="st12" x="327.77" y="66.01" width="98.75" height="109.64"/>
      <text class="st10" transform="translate(333.25 81.35)"><tspan x="0" y="0">Light condition:</tspan></text>
      <text class="st10" transform="translate(333.25 94.31)"><tspan x="0" y="0">Genotype</tspan></text>
      <circle class="st7" cx="341.89" cy="109.69" r="2.49"/>
      <circle class="st6" cx="341.89" cy="126.97" r="2.49"/>
      <circle class="st5" cx="341.89" cy="144.25" r="2.49"/>
      <circle class="st3" cx="341.89" cy="161.53" r="2.49"/>
      <text class="st8" transform="translate(356.01 113.27)"><tspan x="0" y="0">dark:WT</tspan></text>
      <text class="st8" transform="translate(356.01 130.55)"><tspan x="0" y="0">light:WT</tspan></text>
      <text class="st8" transform="translate(356.01 147.83)"><tspan x="0" y="0">dark:Bmal1KO</tspan></text>
      <text class="st8" transform="translate(356.01 165.11)"><tspan x="0" y="0">light:Bmal1KO</tspan></text>
    </g>
  </g>
</svg>